<?xml version="1.0" standalone="no"?>
<!DOCTYPE svg PUBLIC "-//W3C//DTD SVG 20010904//EN"
 "http://www.w3.org/TR/2001/REC-SVG-20010904/DTD/svg10.dtd">
<svg version="1.0" xmlns="http://www.w3.org/2000/svg"
 width="351.000000pt" height="351.000000pt" viewBox="0 0 351.000000 351.000000"
 preserveAspectRatio="xMidYMid meet">
<metadata>
Created by potrace 1.11, written by Peter Selinger 2001-2013
</metadata>
<g transform="translate(0.000000,351.000000) scale(0.100000,-0.100000)"
fill="#000000" stroke="none">
<path d="M452 3486 c-151 -37 -303 -155 -374 -291 -79 -152 -72 -35 -76 -1399
-2 -1040 0 -1231 12 -1304 38 -217 197 -397 411 -465 l70 -22 1265 0 1265 0
65 23 c101 36 169 80 241 152 74 75 140 192 158 282 8 37 11 429 9 1318 l-3
1265 -22 59 c-65 170 -198 305 -366 368 l-62 23 -1270 2 c-1007 1 -1281 -1
-1323 -11z m1148 -601 l0 -204 -107 -3 -108 -3 -3 -375 -3 -375 -94 -74 c-75
-59 -93 -77 -84 -88 6 -7 49 -41 95 -75 l84 -62 0 -383 0 -383 110 0 110 0 0
-205 0 -205 -297 0 c-164 0 -327 5 -363 10 -90 15 -163 52 -192 98 l-23 37 -3
471 -3 471 -132 108 c-73 60 -138 113 -145 119 -9 9 20 38 133 131 l145 119 0
445 c0 262 4 460 10 480 5 19 22 48 37 64 72 75 135 85 521 86 l312 1 0 -205z
m975 195 c94 -15 165 -56 193 -110 22 -44 22 -47 22 -500 l0 -455 145 -119
c80 -65 145 -120 145 -121 0 -2 -65 -56 -145 -121 l-145 -118 0 -464 c0 -441
-1 -465 -20 -502 -23 -45 -56 -70 -125 -95 -44 -16 -92 -19 -392 -23 l-343 -4
0 206 0 206 110 0 110 0 0 383 1 382 94 70 c52 39 95 73 95 76 0 4 -43 41 -95
83 l-95 77 0 374 0 375 -110 0 -110 0 0 205 0 205 303 0 c166 0 329 -4 362
-10z"/>
</g>
</svg>
